<mxfile host="app.diagrams.net" modified="2023-08-26T01:31:39.006Z" agent="Mozilla/5.0 (X11; Ubuntu; Linux x86_64; rv:109.0) Gecko/20100101 Firefox/114.0" etag="Osr77CFUdpF5oZmzu0DH" version="21.1.7" type="device">
  <diagram name="Page-1" id="kcPzfD20yu9Seg6HqLEf">
    <mxGraphModel dx="1687" dy="967" grid="1" gridSize="10" guides="1" tooltips="1" connect="1" arrows="1" fold="1" page="1" pageScale="1" pageWidth="850" pageHeight="1100" math="0" shadow="0">
      <root>
        <mxCell id="0" />
        <mxCell id="1" parent="0" />
        <mxCell id="mw5Jip7o4zRynzQtI0Sn-1" value="&lt;div&gt;: Simulation&lt;/div&gt;" style="shape=umlLifeline;perimeter=lifelinePerimeter;whiteSpace=wrap;html=1;container=1;dropTarget=0;collapsible=0;recursiveResize=0;outlineConnect=0;portConstraint=eastwest;newEdgeStyle={&quot;edgeStyle&quot;:&quot;elbowEdgeStyle&quot;,&quot;elbow&quot;:&quot;vertical&quot;,&quot;curved&quot;:0,&quot;rounded&quot;:0};" vertex="1" parent="1">
          <mxGeometry x="160" y="40" width="100" height="1020" as="geometry" />
        </mxCell>
        <mxCell id="mw5Jip7o4zRynzQtI0Sn-7" value="" style="html=1;points=[];perimeter=orthogonalPerimeter;outlineConnect=0;targetShapes=umlLifeline;portConstraint=eastwest;newEdgeStyle={&quot;edgeStyle&quot;:&quot;elbowEdgeStyle&quot;,&quot;elbow&quot;:&quot;vertical&quot;,&quot;curved&quot;:0,&quot;rounded&quot;:0};" vertex="1" parent="mw5Jip7o4zRynzQtI0Sn-1">
          <mxGeometry x="45" y="90" width="10" height="70" as="geometry" />
        </mxCell>
        <mxCell id="mw5Jip7o4zRynzQtI0Sn-25" value="" style="html=1;points=[];perimeter=orthogonalPerimeter;outlineConnect=0;targetShapes=umlLifeline;portConstraint=eastwest;newEdgeStyle={&quot;edgeStyle&quot;:&quot;elbowEdgeStyle&quot;,&quot;elbow&quot;:&quot;vertical&quot;,&quot;curved&quot;:0,&quot;rounded&quot;:0};" vertex="1" parent="mw5Jip7o4zRynzQtI0Sn-1">
          <mxGeometry x="45" y="260" width="10" height="40" as="geometry" />
        </mxCell>
        <mxCell id="mw5Jip7o4zRynzQtI0Sn-26" value="&lt;div&gt;sort registered systems &lt;br&gt;&lt;/div&gt;&lt;div&gt;based on defined execution order&lt;/div&gt;" style="html=1;align=left;spacingLeft=2;endArrow=block;rounded=0;edgeStyle=orthogonalEdgeStyle;curved=0;rounded=0;" edge="1" target="mw5Jip7o4zRynzQtI0Sn-25" parent="mw5Jip7o4zRynzQtI0Sn-1">
          <mxGeometry relative="1" as="geometry">
            <mxPoint x="50" y="240" as="sourcePoint" />
            <Array as="points">
              <mxPoint x="80" y="270" />
            </Array>
          </mxGeometry>
        </mxCell>
        <mxCell id="mw5Jip7o4zRynzQtI0Sn-53" value="" style="html=1;points=[];perimeter=orthogonalPerimeter;outlineConnect=0;targetShapes=umlLifeline;portConstraint=eastwest;newEdgeStyle={&quot;edgeStyle&quot;:&quot;elbowEdgeStyle&quot;,&quot;elbow&quot;:&quot;vertical&quot;,&quot;curved&quot;:0,&quot;rounded&quot;:0};" vertex="1" parent="mw5Jip7o4zRynzQtI0Sn-1">
          <mxGeometry x="45" y="970" width="10" height="40" as="geometry" />
        </mxCell>
        <mxCell id="mw5Jip7o4zRynzQtI0Sn-54" value="time += dt" style="html=1;align=left;spacingLeft=2;endArrow=block;rounded=0;edgeStyle=orthogonalEdgeStyle;curved=0;rounded=0;" edge="1" target="mw5Jip7o4zRynzQtI0Sn-53" parent="mw5Jip7o4zRynzQtI0Sn-1">
          <mxGeometry relative="1" as="geometry">
            <mxPoint x="50" y="950" as="sourcePoint" />
            <Array as="points">
              <mxPoint x="80" y="980" />
            </Array>
          </mxGeometry>
        </mxCell>
        <mxCell id="mw5Jip7o4zRynzQtI0Sn-2" value="GenericSystem: System" style="shape=umlLifeline;perimeter=lifelinePerimeter;whiteSpace=wrap;html=1;container=1;dropTarget=0;collapsible=0;recursiveResize=0;outlineConnect=0;portConstraint=eastwest;newEdgeStyle={&quot;edgeStyle&quot;:&quot;elbowEdgeStyle&quot;,&quot;elbow&quot;:&quot;vertical&quot;,&quot;curved&quot;:0,&quot;rounded&quot;:0};" vertex="1" parent="1">
          <mxGeometry x="460" y="40" width="100" height="1020" as="geometry" />
        </mxCell>
        <mxCell id="mw5Jip7o4zRynzQtI0Sn-3" value="for [registered systems]" style="shape=umlFrame;whiteSpace=wrap;html=1;pointerEvents=0;width=110;height=60;" vertex="1" parent="1">
          <mxGeometry x="50" y="100" width="670" height="150" as="geometry" />
        </mxCell>
        <mxCell id="mw5Jip7o4zRynzQtI0Sn-8" value="" style="html=1;points=[];perimeter=orthogonalPerimeter;outlineConnect=0;targetShapes=umlLifeline;portConstraint=eastwest;newEdgeStyle={&quot;edgeStyle&quot;:&quot;elbowEdgeStyle&quot;,&quot;elbow&quot;:&quot;vertical&quot;,&quot;curved&quot;:0,&quot;rounded&quot;:0};" vertex="1" parent="1">
          <mxGeometry x="505" y="130" width="10" height="60" as="geometry" />
        </mxCell>
        <mxCell id="mw5Jip7o4zRynzQtI0Sn-9" style="edgeStyle=elbowEdgeStyle;rounded=0;orthogonalLoop=1;jettySize=auto;html=1;elbow=vertical;curved=0;" edge="1" parent="1" source="mw5Jip7o4zRynzQtI0Sn-7" target="mw5Jip7o4zRynzQtI0Sn-8">
          <mxGeometry relative="1" as="geometry">
            <Array as="points">
              <mxPoint x="350" y="160" />
            </Array>
          </mxGeometry>
        </mxCell>
        <mxCell id="mw5Jip7o4zRynzQtI0Sn-10" value="&lt;div&gt;initialize()&lt;/div&gt;" style="edgeLabel;html=1;align=center;verticalAlign=middle;resizable=0;points=[];" vertex="1" connectable="0" parent="mw5Jip7o4zRynzQtI0Sn-9">
          <mxGeometry x="-0.2207" relative="1" as="geometry">
            <mxPoint x="22" as="offset" />
          </mxGeometry>
        </mxCell>
        <mxCell id="mw5Jip7o4zRynzQtI0Sn-27" value="[while time &amp;lt; maxTime]" style="shape=umlFrame;whiteSpace=wrap;html=1;pointerEvents=0;width=110;height=50;" vertex="1" parent="1">
          <mxGeometry x="20" y="360" width="1500" height="730" as="geometry" />
        </mxCell>
        <mxCell id="mw5Jip7o4zRynzQtI0Sn-28" value="LoggingSystem : System" style="shape=umlLifeline;perimeter=lifelinePerimeter;whiteSpace=wrap;html=1;container=1;dropTarget=0;collapsible=0;recursiveResize=0;outlineConnect=0;portConstraint=eastwest;newEdgeStyle={&quot;edgeStyle&quot;:&quot;elbowEdgeStyle&quot;,&quot;elbow&quot;:&quot;vertical&quot;,&quot;curved&quot;:0,&quot;rounded&quot;:0};" vertex="1" parent="1">
          <mxGeometry x="760" y="40" width="100" height="1020" as="geometry" />
        </mxCell>
        <mxCell id="mw5Jip7o4zRynzQtI0Sn-31" value="" style="html=1;points=[];perimeter=orthogonalPerimeter;outlineConnect=0;targetShapes=umlLifeline;portConstraint=eastwest;newEdgeStyle={&quot;edgeStyle&quot;:&quot;elbowEdgeStyle&quot;,&quot;elbow&quot;:&quot;vertical&quot;,&quot;curved&quot;:0,&quot;rounded&quot;:0};" vertex="1" parent="mw5Jip7o4zRynzQtI0Sn-28">
          <mxGeometry x="45" y="350" width="10" height="50" as="geometry" />
        </mxCell>
        <mxCell id="mw5Jip7o4zRynzQtI0Sn-32" style="edgeStyle=elbowEdgeStyle;rounded=0;orthogonalLoop=1;jettySize=auto;html=1;elbow=vertical;curved=0;" edge="1" parent="1" source="mw5Jip7o4zRynzQtI0Sn-29" target="mw5Jip7o4zRynzQtI0Sn-31">
          <mxGeometry relative="1" as="geometry" />
        </mxCell>
        <mxCell id="mw5Jip7o4zRynzQtI0Sn-33" value="WriteAllLogs" style="edgeLabel;html=1;align=center;verticalAlign=middle;resizable=0;points=[];" vertex="1" connectable="0" parent="mw5Jip7o4zRynzQtI0Sn-32">
          <mxGeometry x="0.5153" y="-5" relative="1" as="geometry">
            <mxPoint y="-10" as="offset" />
          </mxGeometry>
        </mxCell>
        <mxCell id="mw5Jip7o4zRynzQtI0Sn-29" value="" style="html=1;points=[];perimeter=orthogonalPerimeter;outlineConnect=0;targetShapes=umlLifeline;portConstraint=eastwest;newEdgeStyle={&quot;edgeStyle&quot;:&quot;elbowEdgeStyle&quot;,&quot;elbow&quot;:&quot;vertical&quot;,&quot;curved&quot;:0,&quot;rounded&quot;:0};" vertex="1" parent="1">
          <mxGeometry x="205" y="390" width="10" height="50" as="geometry" />
        </mxCell>
        <mxCell id="mw5Jip7o4zRynzQtI0Sn-34" value="&lt;div&gt;Write log data at the beginning of each frame.&lt;/div&gt;" style="shape=note;whiteSpace=wrap;html=1;backgroundOutline=1;darkOpacity=0.05;" vertex="1" parent="1">
          <mxGeometry x="840" y="390" width="110" height="120" as="geometry" />
        </mxCell>
        <mxCell id="mw5Jip7o4zRynzQtI0Sn-35" value="" style="html=1;points=[];perimeter=orthogonalPerimeter;outlineConnect=0;targetShapes=umlLifeline;portConstraint=eastwest;newEdgeStyle={&quot;edgeStyle&quot;:&quot;elbowEdgeStyle&quot;,&quot;elbow&quot;:&quot;vertical&quot;,&quot;curved&quot;:0,&quot;rounded&quot;:0};" vertex="1" parent="1">
          <mxGeometry x="205" y="580" width="10" height="70" as="geometry" />
        </mxCell>
        <mxCell id="mw5Jip7o4zRynzQtI0Sn-36" value="for [registered systems]" style="shape=umlFrame;whiteSpace=wrap;html=1;pointerEvents=0;width=110;height=60;" vertex="1" parent="1">
          <mxGeometry x="50" y="550" width="620" height="150" as="geometry" />
        </mxCell>
        <mxCell id="mw5Jip7o4zRynzQtI0Sn-37" value="" style="html=1;points=[];perimeter=orthogonalPerimeter;outlineConnect=0;targetShapes=umlLifeline;portConstraint=eastwest;newEdgeStyle={&quot;edgeStyle&quot;:&quot;elbowEdgeStyle&quot;,&quot;elbow&quot;:&quot;vertical&quot;,&quot;curved&quot;:0,&quot;rounded&quot;:0};" vertex="1" parent="1">
          <mxGeometry x="505" y="580" width="10" height="60" as="geometry" />
        </mxCell>
        <mxCell id="mw5Jip7o4zRynzQtI0Sn-38" style="edgeStyle=elbowEdgeStyle;rounded=0;orthogonalLoop=1;jettySize=auto;html=1;elbow=vertical;curved=0;" edge="1" parent="1" source="mw5Jip7o4zRynzQtI0Sn-35" target="mw5Jip7o4zRynzQtI0Sn-37">
          <mxGeometry relative="1" as="geometry">
            <Array as="points">
              <mxPoint x="350" y="610" />
            </Array>
          </mxGeometry>
        </mxCell>
        <mxCell id="mw5Jip7o4zRynzQtI0Sn-39" value="&lt;div&gt;Update()&lt;/div&gt;" style="edgeLabel;html=1;align=center;verticalAlign=middle;resizable=0;points=[];" vertex="1" connectable="0" parent="mw5Jip7o4zRynzQtI0Sn-38">
          <mxGeometry x="-0.2207" relative="1" as="geometry">
            <mxPoint x="22" as="offset" />
          </mxGeometry>
        </mxCell>
        <mxCell id="mw5Jip7o4zRynzQtI0Sn-40" value="Update each registered system in the order they were sorted." style="shape=note;whiteSpace=wrap;html=1;backgroundOutline=1;darkOpacity=0.05;" vertex="1" parent="1">
          <mxGeometry x="530" y="565" width="110" height="120" as="geometry" />
        </mxCell>
        <mxCell id="mw5Jip7o4zRynzQtI0Sn-41" value="IntegrationSystem : System" style="shape=umlLifeline;perimeter=lifelinePerimeter;whiteSpace=wrap;html=1;container=1;dropTarget=0;collapsible=0;recursiveResize=0;outlineConnect=0;portConstraint=eastwest;newEdgeStyle={&quot;edgeStyle&quot;:&quot;elbowEdgeStyle&quot;,&quot;elbow&quot;:&quot;vertical&quot;,&quot;curved&quot;:0,&quot;rounded&quot;:0};" vertex="1" parent="1">
          <mxGeometry x="1030" y="40" width="100" height="1020" as="geometry" />
        </mxCell>
        <mxCell id="mw5Jip7o4zRynzQtI0Sn-43" value="" style="html=1;points=[];perimeter=orthogonalPerimeter;outlineConnect=0;targetShapes=umlLifeline;portConstraint=eastwest;newEdgeStyle={&quot;edgeStyle&quot;:&quot;elbowEdgeStyle&quot;,&quot;elbow&quot;:&quot;vertical&quot;,&quot;curved&quot;:0,&quot;rounded&quot;:0};" vertex="1" parent="mw5Jip7o4zRynzQtI0Sn-41">
          <mxGeometry x="45" y="690" width="10" height="80" as="geometry" />
        </mxCell>
        <mxCell id="mw5Jip7o4zRynzQtI0Sn-44" style="edgeStyle=elbowEdgeStyle;rounded=0;orthogonalLoop=1;jettySize=auto;html=1;elbow=vertical;curved=0;" edge="1" parent="1" source="mw5Jip7o4zRynzQtI0Sn-42" target="mw5Jip7o4zRynzQtI0Sn-43">
          <mxGeometry relative="1" as="geometry">
            <Array as="points">
              <mxPoint x="1010" y="760" />
            </Array>
          </mxGeometry>
        </mxCell>
        <mxCell id="mw5Jip7o4zRynzQtI0Sn-45" value="Update" style="edgeLabel;html=1;align=center;verticalAlign=middle;resizable=0;points=[];" vertex="1" connectable="0" parent="mw5Jip7o4zRynzQtI0Sn-44">
          <mxGeometry x="0.667" relative="1" as="geometry">
            <mxPoint as="offset" />
          </mxGeometry>
        </mxCell>
        <mxCell id="mw5Jip7o4zRynzQtI0Sn-42" value="" style="html=1;points=[];perimeter=orthogonalPerimeter;outlineConnect=0;targetShapes=umlLifeline;portConstraint=eastwest;newEdgeStyle={&quot;edgeStyle&quot;:&quot;elbowEdgeStyle&quot;,&quot;elbow&quot;:&quot;vertical&quot;,&quot;curved&quot;:0,&quot;rounded&quot;:0};" vertex="1" parent="1">
          <mxGeometry x="205" y="740" width="10" height="80" as="geometry" />
        </mxCell>
        <mxCell id="mw5Jip7o4zRynzQtI0Sn-46" value="Integrate all necessary data in order to begin next frame calculations." style="shape=note;whiteSpace=wrap;html=1;backgroundOutline=1;darkOpacity=0.05;" vertex="1" parent="1">
          <mxGeometry x="1130" y="730" width="110" height="120" as="geometry" />
        </mxCell>
        <mxCell id="mw5Jip7o4zRynzQtI0Sn-47" value="ClockManager : ComponentManager" style="shape=umlLifeline;perimeter=lifelinePerimeter;whiteSpace=wrap;html=1;container=1;dropTarget=0;collapsible=0;recursiveResize=0;outlineConnect=0;portConstraint=eastwest;newEdgeStyle={&quot;edgeStyle&quot;:&quot;elbowEdgeStyle&quot;,&quot;elbow&quot;:&quot;vertical&quot;,&quot;curved&quot;:0,&quot;rounded&quot;:0};" vertex="1" parent="1">
          <mxGeometry x="1275" y="40" width="165" height="1020" as="geometry" />
        </mxCell>
        <mxCell id="mw5Jip7o4zRynzQtI0Sn-49" value="" style="html=1;points=[];perimeter=orthogonalPerimeter;outlineConnect=0;targetShapes=umlLifeline;portConstraint=eastwest;newEdgeStyle={&quot;edgeStyle&quot;:&quot;elbowEdgeStyle&quot;,&quot;elbow&quot;:&quot;vertical&quot;,&quot;curved&quot;:0,&quot;rounded&quot;:0};" vertex="1" parent="mw5Jip7o4zRynzQtI0Sn-47">
          <mxGeometry x="75" y="840" width="10" height="80" as="geometry" />
        </mxCell>
        <mxCell id="mw5Jip7o4zRynzQtI0Sn-50" style="edgeStyle=elbowEdgeStyle;rounded=0;orthogonalLoop=1;jettySize=auto;html=1;elbow=vertical;curved=0;" edge="1" parent="1" source="mw5Jip7o4zRynzQtI0Sn-48" target="mw5Jip7o4zRynzQtI0Sn-49">
          <mxGeometry relative="1" as="geometry" />
        </mxCell>
        <mxCell id="mw5Jip7o4zRynzQtI0Sn-51" value="UpdateClocks" style="edgeLabel;html=1;align=center;verticalAlign=middle;resizable=0;points=[];" vertex="1" connectable="0" parent="mw5Jip7o4zRynzQtI0Sn-50">
          <mxGeometry x="0.7275" relative="1" as="geometry">
            <mxPoint as="offset" />
          </mxGeometry>
        </mxCell>
        <mxCell id="mw5Jip7o4zRynzQtI0Sn-48" value="" style="html=1;points=[];perimeter=orthogonalPerimeter;outlineConnect=0;targetShapes=umlLifeline;portConstraint=eastwest;newEdgeStyle={&quot;edgeStyle&quot;:&quot;elbowEdgeStyle&quot;,&quot;elbow&quot;:&quot;vertical&quot;,&quot;curved&quot;:0,&quot;rounded&quot;:0};" vertex="1" parent="1">
          <mxGeometry x="205" y="880" width="10" height="80" as="geometry" />
        </mxCell>
        <mxCell id="mw5Jip7o4zRynzQtI0Sn-52" value="Update all tracked clocks by dt." style="shape=note;whiteSpace=wrap;html=1;backgroundOutline=1;darkOpacity=0.05;" vertex="1" parent="1">
          <mxGeometry x="1400" y="880" width="110" height="120" as="geometry" />
        </mxCell>
        <mxCell id="mw5Jip7o4zRynzQtI0Sn-55" value="Update the current frame time by dt." style="shape=note;whiteSpace=wrap;html=1;backgroundOutline=1;darkOpacity=0.05;" vertex="1" parent="1">
          <mxGeometry x="320" y="950" width="110" height="120" as="geometry" />
        </mxCell>
      </root>
    </mxGraphModel>
  </diagram>
</mxfile>
